<?xml version="1.0" standalone="no"?>
<!DOCTYPE svg PUBLIC "-//W3C//DTD SVG 20010904//EN"
 "http://www.w3.org/TR/2001/REC-SVG-20010904/DTD/svg10.dtd">
<svg version="1.0" xmlns="http://www.w3.org/2000/svg"
 width="1166.000000pt" height="1166.000000pt" viewBox="0 0 1166.000000 1166.000000"
 preserveAspectRatio="xMidYMid meet">
<metadata>
Created by potrace 1.14, written by Peter Selinger 2001-2017
</metadata>
<g transform="translate(0.000000,1166.000000) scale(0.100000,-0.100000)"
stroke="none">
<path fill="#0f76b0" d="M1648 11638 c43 -53 155 -186 186 -220 18 -21 31 -38 27 -38 -3 -1 3
-8 14 -18 11 -9 38 -40 59 -67 22 -28 47 -58 55 -67 9 -9 21 -23 26 -30 35
-45 92 -115 105 -128 8 -9 31 -35 50 -59 19 -24 40 -48 45 -54 9 -10 45 -54
116 -142 10 -11 34 -41 55 -66 22 -25 77 -92 123 -148 46 -55 89 -101 94 -101
6 0 8 -3 4 -6 -4 -5 87 -122 112 -144 3 -3 24 -27 45 -55 22 -27 50 -60 63
-71 13 -12 23 -25 23 -30 0 -5 22 -33 49 -61 27 -29 46 -53 43 -53 -3 0 3 -8
14 -19 10 -10 35 -38 54 -62 19 -24 73 -89 120 -145 47 -56 101 -121 120 -144
19 -24 40 -48 45 -54 6 -6 30 -36 55 -66 25 -30 47 -57 50 -60 3 -3 25 -30 50
-60 25 -30 53 -63 64 -72 10 -10 17 -18 13 -18 -3 0 7 -15 23 -32 15 -18 65
-78 111 -133 46 -55 88 -105 94 -111 5 -7 24 -29 40 -49 36 -45 198 -239 230
-276 13 -15 31 -38 40 -53 9 -14 22 -23 29 -19 6 3 8 3 4 -2 -6 -6 52 -87 82
-115 3 -3 41 -48 84 -100 43 -52 88 -106 100 -120 12 -14 32 -39 45 -57 14
-18 28 -30 33 -27 5 3 8 2 7 -3 -3 -20 2 -34 11 -28 6 3 10 1 10 -4 0 -14 140
-181 151 -181 5 0 8 -4 6 -9 -1 -5 6 -17 15 -28 10 -10 35 -39 55 -64 52 -63
116 -140 128 -153 6 -6 28 -34 50 -61 21 -28 49 -60 62 -72 13 -12 23 -27 23
-32 0 -6 6 -14 13 -18 6 -4 41 -44 77 -88 35 -44 74 -91 86 -105 12 -14 67
-79 121 -145 54 -66 108 -131 119 -145 37 -43 97 -115 133 -160 19 -23 40 -48
46 -54 9 -10 81 -96 115 -139 8 -11 20 -24 25 -31 6 -6 28 -33 50 -61 22 -27
47 -56 55 -65 8 -8 33 -38 55 -65 22 -28 45 -55 51 -61 5 -6 26 -31 45 -54 18
-23 39 -47 44 -54 6 -6 48 -57 94 -113 46 -57 88 -103 93 -103 5 0 7 -4 3 -9
-3 -5 3 -16 13 -23 9 -7 41 -43 71 -80 29 -38 58 -68 64 -68 5 0 8 -3 4 -6 -3
-3 25 -43 64 -88 63 -74 82 -106 62 -106 -5 0 -30 -28 -58 -63 -27 -34 -53
-64 -56 -67 -3 -3 -42 -48 -85 -100 -44 -52 -89 -106 -101 -120 -12 -14 -51
-61 -88 -105 -37 -44 -78 -92 -91 -107 -13 -15 -24 -30 -24 -32 0 -3 -10 -15
-22 -28 -13 -13 -43 -47 -68 -77 -25 -29 -51 -60 -58 -67 -7 -8 -11 -14 -8
-14 3 0 -5 -10 -17 -23 -24 -25 -80 -89 -136 -156 -20 -24 -99 -119 -176 -211
-77 -91 -158 -188 -180 -215 -22 -27 -47 -56 -55 -65 -13 -13 -72 -85 -120
-143 -27 -34 -51 -61 -81 -94 -16 -18 -27 -33 -24 -33 3 0 -4 -10 -17 -23 -13
-12 -46 -49 -73 -82 -27 -33 -54 -65 -60 -71 -5 -6 -26 -30 -45 -54 -19 -24
-40 -48 -45 -54 -6 -6 -46 -54 -90 -106 -43 -52 -90 -106 -102 -120 -13 -14
-23 -28 -23 -31 0 -3 -22 -30 -50 -60 -27 -30 -50 -60 -50 -68 0 -8 -3 -11 -6
-8 -6 6 -45 -35 -45 -47 0 -3 -14 -20 -32 -39 -43 -45 -67 -72 -182 -212 -54
-66 -115 -138 -135 -160 -19 -22 -48 -57 -65 -78 -16 -21 -39 -48 -50 -60 -11
-13 -38 -45 -60 -71 -22 -27 -50 -60 -63 -75 -13 -14 -33 -39 -45 -54 -12 -16
-29 -36 -38 -45 -8 -10 -37 -44 -65 -77 -27 -33 -59 -71 -71 -84 -12 -14 -19
-29 -16 -34 3 -6 1 -7 -4 -4 -6 4 -24 -10 -39 -31 -25 -32 -194 -236 -260
-312 -12 -14 -63 -74 -114 -135 -50 -60 -99 -119 -109 -130 -9 -11 -18 -23
-20 -27 -1 -3 -27 -33 -57 -65 -29 -32 -54 -61 -54 -64 0 -3 -10 -17 -22 -31
-51 -56 -86 -97 -153 -178 -38 -47 -72 -87 -75 -90 -3 -3 -24 -27 -45 -55 -22
-27 -47 -56 -55 -65 -16 -18 -29 -33 -100 -120 -25 -30 -50 -59 -56 -65 -6 -5
-46 -53 -89 -105 -43 -52 -82 -97 -87 -98 -4 -2 -8 -10 -8 -18 0 -8 -3 -14 -7
-14 -5 0 -33 -30 -63 -67 -30 -37 -73 -88 -95 -114 -22 -25 -56 -65 -75 -88
-19 -24 -42 -51 -52 -62 -9 -11 -31 -38 -48 -59 -18 -22 -42 -50 -53 -63 -25
-27 -32 -35 -137 -162 -41 -50 -85 -101 -97 -115 -13 -14 -23 -28 -23 -31 0
-8 1740 -8 1740 0 0 3 13 20 28 37 15 17 45 53 67 79 22 27 52 62 66 79 24 28
58 68 137 164 15 18 34 40 42 49 8 9 40 47 70 83 136 165 315 375 322 378 5 2
6 8 2 13 -3 5 -1 9 4 9 5 0 31 28 59 63 28 34 60 71 70 82 10 11 50 58 88 105
78 95 94 114 125 150 12 14 36 42 53 63 18 22 46 55 64 75 18 19 30 39 27 44
-3 4 1 8 8 8 7 1 33 26 58 57 25 30 50 61 55 67 6 6 44 52 85 101 41 50 77 92
80 95 3 3 37 43 75 90 66 80 107 129 130 154 6 6 40 47 75 91 36 43 72 87 80
96 53 58 105 122 105 128 0 4 12 19 26 32 14 13 62 67 105 119 44 52 84 98 89
102 6 4 7 8 3 8 -3 0 6 12 20 28 15 15 45 49 67 76 22 27 46 54 53 62 6 7 12
17 12 23 0 6 4 11 9 11 4 0 35 32 67 71 33 39 66 80 76 90 9 11 31 38 50 61
18 23 45 55 60 72 14 17 24 35 21 40 -3 5 -1 6 4 3 6 -4 18 3 26 16 8 12 37
47 63 78 27 31 58 67 69 80 11 14 66 79 123 147 57 67 101 122 99 122 -3 0 12
17 32 38 20 20 45 48 56 62 11 14 38 47 60 75 22 27 47 56 55 65 8 8 33 38 55
65 22 28 42 52 45 55 3 3 30 34 60 70 30 36 65 76 77 89 12 14 20 28 17 33 -3
5 -1 7 3 6 5 -2 45 40 88 92 43 52 105 125 138 163 32 37 57 67 54 67 -3 0 11
18 31 39 20 21 44 47 52 58 26 32 114 137 128 151 7 8 25 30 40 50 15 20 34
43 42 52 8 9 35 40 60 69 25 30 50 59 55 65 6 6 30 36 55 66 24 30 51 62 60
71 8 9 22 25 30 35 8 11 41 51 74 89 32 39 74 90 95 114 20 24 55 64 78 90 23
25 43 49 43 52 0 3 12 19 28 36 15 16 41 46 57 67 17 21 42 52 58 69 15 18 53
62 83 99 l56 67 -33 41 c-18 22 -36 40 -41 40 -4 0 -7 4 -6 9 2 5 -10 24 -27
42 -16 19 -50 59 -75 89 -25 30 -49 60 -55 66 -5 7 -24 29 -42 50 -17 22 -39
49 -50 61 -10 11 -32 38 -50 60 -17 21 -39 48 -50 59 -10 12 -31 39 -48 60
-16 21 -48 59 -70 84 -22 25 -56 65 -75 89 -34 42 -89 109 -134 161 -11 14
-41 50 -66 80 -25 30 -47 57 -50 60 -3 3 -21 25 -41 50 -20 25 -45 55 -55 67
-11 12 -26 30 -34 40 -52 64 -206 249 -210 253 -3 3 -25 30 -50 60 -25 30 -49
60 -55 66 -5 6 -26 30 -45 54 -19 24 -39 48 -45 54 -5 6 -28 33 -50 61 -22 27
-54 65 -72 83 -18 18 -33 36 -33 40 -1 4 -19 27 -40 52 -29 35 -299 358 -412
495 -9 11 -67 81 -128 155 -62 74 -122 146 -133 160 -12 14 -42 50 -67 80 -25
30 -47 57 -50 60 -3 3 -25 30 -50 60 -25 30 -47 57 -50 60 -3 3 -37 43 -75 90
-38 47 -71 87 -74 90 -3 3 -23 26 -44 52 -21 26 -43 53 -50 60 -12 13 -89 106
-117 142 -8 10 -22 26 -30 35 -8 9 -27 33 -42 53 -15 20 -33 42 -40 50 -12 12
-115 135 -183 218 -15 19 -32 34 -37 33 -4 -2 -7 1 -5 5 2 7 -38 60 -78 106
-6 6 -30 36 -55 66 -25 30 -47 57 -50 60 -5 4 -52 61 -115 139 -11 14 -30 35
-42 48 -12 12 -26 29 -30 36 -9 17 -88 111 -120 144 -13 13 -23 27 -23 30 0 3
-15 22 -32 42 -40 45 -61 70 -158 186 -41 50 -82 99 -91 110 -10 11 -64 76
-121 145 -117 142 -127 155 -148 180 -8 9 -33 39 -55 66 -22 27 -52 61 -67 77
-14 15 -24 27 -21 27 3 0 -10 17 -28 38 -19 21 -52 60 -74 86 -22 27 -45 54
-50 60 -6 6 -30 36 -55 66 -25 30 -47 57 -50 60 -3 3 -34 41 -70 85 -35 44
-77 95 -94 113 l-30 32 -868 0 -868 0 18 -22z"/>
<path fill="#1a1a1a" d="M9188 8080 l-858 -5 -15 -22 c-9 -12 -21 -28 -28 -35 -43 -46 -192
-233 -189 -240 1 -4 -2 -7 -6 -6 -8 3 -62 -54 -62 -65 0 -3 -12 -18 -28 -34
-15 -15 -45 -50 -67 -77 -54 -66 -111 -135 -138 -166 -12 -14 -35 -43 -52 -64
-16 -21 -35 -44 -42 -51 -8 -9 -2 -21 27 -51 22 -21 39 -43 40 -47 0 -4 16
-23 35 -42 19 -19 32 -35 29 -35 -3 0 5 -11 18 -24 13 -14 35 -39 50 -58 66
-81 95 -115 116 -138 13 -14 32 -40 43 -57 12 -18 24 -33 29 -33 5 0 12 -9 15
-20 3 -11 13 -20 21 -20 8 0 14 -6 14 -12 0 -7 20 -35 45 -62 25 -26 45 -52
45 -56 0 -5 3 -10 8 -12 4 -1 27 -28 52 -58 25 -30 47 -57 50 -60 3 -3 21 -25
41 -50 20 -25 45 -55 55 -67 20 -23 27 -31 88 -106 31 -38 41 -45 53 -36 7 7
11 14 9 17 -3 2 9 16 25 29 16 14 28 28 25 30 -2 3 8 17 23 31 21 22 206 241
254 302 39 50 181 219 202 241 14 14 25 29 25 33 0 4 10 17 23 29 12 12 40 45
62 72 55 69 57 71 85 103 14 15 39 45 55 66 17 21 43 52 58 69 16 18 38 45 50
60 12 16 28 35 35 43 7 8 12 14 10 14 -2 0 19 26 48 57 29 31 51 60 48 65 -3
4 -1 8 4 8 8 0 221 249 342 400 19 24 52 63 73 87 20 25 37 46 37 48 0 9 -91
10 -882 5z"/>
<path fill="#1a1a1a" d="M8539 5372 c-13 -16 -40 -49 -58 -72 -19 -23 -41 -49 -49 -56 -7 -8
-11 -14 -7 -14 3 0 -4 -10 -17 -22 -13 -13 -55 -61 -93 -108 -38 -47 -81 -97
-95 -113 -14 -15 -24 -28 -22 -30 2 -1 -22 -29 -52 -62 -31 -33 -56 -63 -56
-67 0 -4 -11 -17 -23 -30 -20 -19 -124 -143 -187 -222 -33 -42 -102 -122 -120
-141 -11 -12 -20 -26 -20 -33 0 -7 -4 -12 -10 -12 -5 0 -14 -9 -20 -21 -10
-17 -4 -30 45 -90 32 -38 61 -69 66 -69 5 0 8 -3 7 -7 -3 -8 10 -24 69 -92 18
-20 33 -40 33 -44 0 -5 5 -5 10 -2 6 3 10 -3 10 -14 0 -12 7 -21 15 -21 8 0
15 -6 15 -14 0 -8 11 -23 25 -34 13 -11 22 -22 19 -24 -3 -3 9 -17 26 -32 17
-14 28 -26 23 -26 -4 -1 1 -8 12 -18 11 -9 40 -43 64 -75 25 -32 54 -65 65
-73 12 -8 19 -16 16 -17 -3 -2 18 -30 45 -61 28 -32 53 -62 56 -68 4 -5 329
-9 840 -9 976 0 920 0 894 11 -11 5 -16 9 -12 9 7 1 -56 82 -100 129 -7 7 -29
34 -50 60 -21 26 -96 117 -168 202 -71 85 -133 160 -137 165 -29 36 -117 142
-145 174 -13 15 -26 31 -30 36 -15 19 -98 120 -108 131 -5 6 -26 30 -45 53
-19 23 -42 51 -52 62 -9 11 -31 39 -50 61 -75 94 -144 175 -170 201 -15 15
-27 28 -25 30 1 2 -16 25 -38 51 -49 58 -60 72 -105 127 -19 24 -47 56 -62 72
-16 16 -28 32 -28 35 0 4 -15 23 -33 42 -17 19 -54 62 -81 95 -27 33 -53 64
-56 68 -4 5 -18 -5 -31 -21z"/>
</g>
</svg>
